<svg width="50" height="50" viewBox="0 0 50 50" fill="none" xmlns="http://www.w3.org/2000/svg">
<g clip-path="url(#clip0_0_67)">
<path d="M25.0001 27.0845C28.4522 27.0845 31.2501 29.8824 31.2501 33.3345C31.2501 35.1053 30.5147 36.7011 29.3334 37.8386L25.3542 41.6678H31.2501V45.8345H18.7501V42.2428L26.4438 34.8365C26.8397 34.4553 27.0834 33.924 27.0834 33.3345C27.0834 32.1845 26.1501 31.2511 25.0001 31.2511C23.8501 31.2511 22.9167 32.1845 22.9167 33.3345H18.7501C18.7501 29.8824 21.548 27.0845 25.0001 27.0845ZM37.5001 27.0845V35.4178H41.6668V27.0845H45.8334V45.8345H41.6668V39.5845H33.3334V27.0845H37.5001ZM8.33342 25.0011C8.33342 30.2657 10.773 34.9595 14.5834 38.0136V43.047C8.35633 39.4449 4.16675 32.7136 4.16675 25.0011H8.33342ZM25.0001 4.16779C35.8022 4.16779 44.6855 12.3907 45.7293 22.9178H41.5376C40.5126 14.697 33.5001 8.33445 25.0001 8.33445C19.2709 8.33445 14.2167 11.224 11.2188 15.6261H16.6667V19.7928H4.16675V7.29279H8.33342V12.5011C12.1334 7.43862 18.1855 4.16779 25.0001 4.16779Z" fill="#101420"/>
</g>
<defs>
<clipPath id="clip0_0_67">
<rect width="50" height="50" fill="white" transform="translate(6.10352e-05 0.0010376)"/>
</clipPath>
</defs>
</svg>
