<svg width="110" height="43" viewBox="0 0 110 43" fill="none" xmlns="http://www.w3.org/2000/svg">
<g filter="url(#filter0_i_188_16)">
<path d="M90.609 42.8849C88.1383 42.8849 85.9005 42.2691 83.8957 41.0375C81.905 39.7922 80.3238 37.9653 79.1519 35.5568C77.9942 33.1346 77.4154 30.165 77.4154 26.6481C77.4154 23.0353 78.0154 20.0316 79.2155 17.6367C80.4155 15.2282 82.0109 13.4287 84.0016 12.2382C86.0064 11.0339 88.2018 10.4318 90.5878 10.4318C92.4091 10.4318 93.9268 10.7328 95.141 11.335C96.3693 11.9234 97.3576 12.6624 98.1058 13.5519C98.8682 14.4277 99.4471 15.2898 99.8424 16.1383H100.118V0.33252H109.118V42.3717H100.224V37.3221H99.8424C99.4188 38.1979 98.8188 39.0669 98.0423 39.929C97.2799 40.7775 96.2846 41.4822 95.0563 42.0433C93.8421 42.6044 92.3597 42.8849 90.609 42.8849ZM93.468 35.9263C94.9221 35.9263 96.1504 35.5431 97.1528 34.7767C98.1694 33.9967 98.9459 32.9088 99.4824 31.513C100.033 30.1171 100.308 28.4818 100.308 26.607C100.308 24.7322 100.04 23.1038 99.5036 21.7216C98.9671 20.3395 98.1905 19.2721 97.174 18.5194C96.1575 17.7667 94.9221 17.3904 93.468 17.3904C91.9855 17.3904 90.7361 17.7804 89.7195 18.5605C88.703 19.3405 87.9336 20.4216 87.4112 21.8037C86.8888 23.1859 86.6276 24.787 86.6276 26.607C86.6276 28.4408 86.8888 30.0624 87.4112 31.4719C87.9477 32.8677 88.7171 33.9625 89.7195 34.7562C90.7361 35.5363 91.9855 35.9263 93.468 35.9263Z" fill="white"/>
<path d="M50.9647 40.0933V11.0271H58.5462V40.0933H50.9647ZM39.7618 29.2345V21.8859H69.7491V29.2345H39.7618Z" fill="white"/>
<path d="M0.345093 42.3717V0.33252H9.36672V16.1383H9.64203C10.0373 15.2898 10.6091 14.4277 11.3574 13.5519C12.1198 12.6624 13.1081 11.9234 14.3223 11.335C15.5506 10.7328 17.0753 10.4318 18.8966 10.4318C21.2685 10.4318 23.4568 11.0339 25.4616 12.2382C27.4664 13.4287 29.0689 15.2282 30.2689 17.6367C31.469 20.0316 32.069 23.0353 32.069 26.6481C32.069 30.165 31.4831 33.1346 30.3113 35.5568C29.1536 37.9653 27.5723 39.7922 25.5675 41.0375C23.5768 42.2691 21.3461 42.8849 18.8754 42.8849C17.1248 42.8849 15.6353 42.6044 14.407 42.0433C13.1928 41.4822 12.1974 40.7775 11.4209 39.929C10.6444 39.0669 10.0515 38.1979 9.64203 37.3221H9.23965V42.3717H0.345093ZM9.17612 26.607C9.17612 28.4818 9.44437 30.1171 9.98087 31.513C10.5174 32.9088 11.2939 33.9967 12.3104 34.7767C13.3269 35.5431 14.5623 35.9263 16.0165 35.9263C17.4848 35.9263 18.7272 35.5363 19.7437 34.7562C20.7602 33.9625 21.5297 32.8677 22.0521 31.4719C22.5886 30.0624 22.8568 28.4408 22.8568 26.607C22.8568 24.787 22.5956 23.1859 22.0732 21.8037C21.5509 20.4216 20.7814 19.3405 19.7649 18.5605C18.7484 17.7804 17.4989 17.3904 16.0165 17.3904C14.5482 17.3904 13.3057 17.7667 12.2892 18.5194C11.2868 19.2721 10.5174 20.3395 9.98087 21.7216C9.44437 23.1038 9.17612 24.7322 9.17612 26.607Z" fill="white"/>
</g>
<defs>
<filter id="filter0_i_188_16" x="0.345093" y="0.33252" width="110.773" height="46.5525" filterUnits="userSpaceOnUse" color-interpolation-filters="sRGB">
<feFlood flood-opacity="0" result="BackgroundImageFix"/>
<feBlend mode="normal" in="SourceGraphic" in2="BackgroundImageFix" result="shape"/>
<feColorMatrix in="SourceAlpha" type="matrix" values="0 0 0 0 0 0 0 0 0 0 0 0 0 0 0 0 0 0 127 0" result="hardAlpha"/>
<feOffset dx="2" dy="6"/>
<feGaussianBlur stdDeviation="2"/>
<feComposite in2="hardAlpha" operator="arithmetic" k2="-1" k3="1"/>
<feColorMatrix type="matrix" values="0 0 0 0 0 0 0 0 0 0 0 0 0 0 0 0 0 0 0.35 0"/>
<feBlend mode="normal" in2="shape" result="effect1_innerShadow_188_16"/>
</filter>
</defs>
</svg>
