<svg width="26" height="25" viewBox="0 0 26 25" fill="none" xmlns="http://www.w3.org/2000/svg">
<g clip-path="url(#clip0_0_120)">
<path d="M16.9185 3.18516C16.7795 3.86953 16.7795 4.57486 16.9185 5.25923H4.9003L12.7299 12.168L17.9659 7.48057C18.4077 8.02708 18.9594 8.48234 19.5868 8.81316L12.7413 14.9431L4.37037 7.55731V19.7778H20.963V9.30368C21.6473 9.44271 22.3527 9.44271 23.037 9.30368V20.8148C23.037 21.0898 22.9278 21.3536 22.7333 21.5481C22.5388 21.7426 22.275 21.8518 22 21.8518H3.33333C3.05829 21.8518 2.79452 21.7426 2.60004 21.5481C2.40555 21.3536 2.2963 21.0898 2.2963 20.8148V4.2222C2.2963 3.94716 2.40555 3.68338 2.60004 3.4889C2.79452 3.29442 3.05829 3.18516 3.33333 3.18516H16.9185ZM22 7.33331C21.5914 7.33331 21.1869 7.25284 20.8094 7.09649C20.432 6.94014 20.089 6.71098 19.8001 6.42208C19.5112 6.13319 19.2821 5.79022 19.1257 5.41277C18.9694 5.03531 18.8889 4.63075 18.8889 4.2222C18.8889 3.81364 18.9694 3.40908 19.1257 3.03162C19.2821 2.65417 19.5112 2.3112 19.8001 2.02231C20.089 1.73341 20.432 1.50425 20.8094 1.3479C21.1869 1.19156 21.5914 1.11108 22 1.11108C22.8251 1.11108 23.6164 1.43886 24.1999 2.02231C24.7833 2.60575 25.1111 3.39708 25.1111 4.2222C25.1111 5.04731 24.7833 5.83864 24.1999 6.42208C23.6164 7.00553 22.8251 7.33331 22 7.33331Z" fill="white"/>
</g>
<defs>
<clipPath id="clip0_0_120">
<rect width="24.8889" height="24.8889" fill="white" transform="translate(0.222229 0.0740967)"/>
</clipPath>
</defs>
</svg>
