<svg width="45" height="42" viewBox="0 0 45 42" fill="none" xmlns="http://www.w3.org/2000/svg">
<g clip-path="url(#clip0_0_17)">
<path d="M26.25 33.25H35.625V8.75H9.375V33.25H22.5V24.5H18.75V21H22.5V18.1055C22.5 15.7657 22.7625 14.917 23.25 14.0612C23.7302 13.2146 24.4724 12.5225 25.38 12.075C26.0963 11.7162 26.9869 11.501 28.5431 11.4082C29.16 11.3715 29.9587 11.417 30.9394 11.5483V14.8732H30C28.2806 14.8732 27.57 14.9485 27.1462 15.1602C26.8934 15.2816 26.6875 15.4738 26.5575 15.7098C26.3325 16.1053 26.25 16.4973 26.25 18.1038V21H30.9375L30 24.5H26.25V33.25ZM7.5 5.25H37.5C37.9973 5.25 38.4742 5.43437 38.8258 5.76256C39.1775 6.09075 39.375 6.53587 39.375 7V35C39.375 35.4641 39.1775 35.9093 38.8258 36.2374C38.4742 36.5656 37.9973 36.75 37.5 36.75H7.5C7.00272 36.75 6.52581 36.5656 6.17417 36.2374C5.82254 35.9093 5.625 35.4641 5.625 35V7C5.625 6.53587 5.82254 6.09075 6.17417 5.76256C6.52581 5.43437 7.00272 5.25 7.5 5.25Z" fill="white"/>
</g>
<defs>
<clipPath id="clip0_0_17">
<rect width="45" height="42" fill="white"/>
</clipPath>
</defs>
</svg>
