<svg width="50" height="50" viewBox="0 0 50 50" fill="none" xmlns="http://www.w3.org/2000/svg">
<g clip-path="url(#clip0_0_62)">
<path d="M43.7501 6.25104V10.4177C43.7501 30.474 32.5563 39.5844 18.7501 39.5844H10.923C10.5834 41.4844 10.4167 43.5573 10.4167 45.8344H6.25006C6.25006 42.9948 6.49173 40.4177 6.97089 38.0594C6.49173 35.3635 6.25006 31.7052 6.25006 27.0844C6.25006 15.5781 15.5771 6.25104 27.0834 6.25104C31.2501 6.25104 35.4167 8.33437 43.7501 6.25104ZM27.0834 10.4177C17.8792 10.4177 10.4167 17.8802 10.4167 27.0844C10.4167 27.8385 10.423 28.5656 10.4376 29.2635C13.0501 25.1427 16.8771 21.8865 21.8834 19.026L23.9501 22.6427C18.0021 26.0427 14.0563 29.9052 12.0334 35.4177H18.7501C31.2813 35.4177 39.3146 27.1406 39.5771 11.226C36.7188 11.5031 34.0626 11.326 30.7855 10.8344C28.3896 10.474 27.9188 10.4177 27.0834 10.4177Z" fill="#101420"/>
</g>
<defs>
<clipPath id="clip0_0_62">
<rect width="50" height="50" fill="white" transform="translate(6.10352e-05 0.0010376)"/>
</clipPath>
</defs>
</svg>
