<svg width="42" height="41" viewBox="0 0 42 41" fill="none" xmlns="http://www.w3.org/2000/svg">
<g clip-path="url(#clip0_0_7)">
<path d="M21 15.3751C19.6076 15.3751 18.2723 15.915 17.2877 16.8762C16.3031 17.8373 15.75 19.1408 15.75 20.5001C15.75 21.8593 16.3031 23.1629 17.2877 24.124C18.2723 25.0851 19.6076 25.6251 21 25.6251C22.3924 25.6251 23.7277 25.0851 24.7123 24.124C25.6969 23.1629 26.25 21.8593 26.25 20.5001C26.25 19.1408 25.6969 17.8373 24.7123 16.8762C23.7277 15.915 22.3924 15.3751 21 15.3751ZM21 11.9584C23.3206 11.9584 25.5462 12.8583 27.1872 14.4602C28.8281 16.0621 29.75 18.2347 29.75 20.5001C29.75 22.7655 28.8281 24.9381 27.1872 26.54C25.5462 28.1418 23.3206 29.0417 21 29.0417C18.6794 29.0417 16.4538 28.1418 14.8128 26.54C13.1719 24.9381 12.25 22.7655 12.25 20.5001C12.25 18.2347 13.1719 16.0621 14.8128 14.4602C16.4538 12.8583 18.6794 11.9584 21 11.9584ZM32.375 11.5313C32.375 12.0977 32.1445 12.6408 31.7343 13.0413C31.3241 13.4418 30.7677 13.6667 30.1875 13.6667C29.6073 13.6667 29.0509 13.4418 28.6407 13.0413C28.2305 12.6408 28 12.0977 28 11.5313C28 10.965 28.2305 10.4218 28.6407 10.0214C29.0509 9.6209 29.6073 9.39591 30.1875 9.39591C30.7677 9.39591 31.3241 9.6209 31.7343 10.0214C32.1445 10.4218 32.375 10.965 32.375 11.5313ZM21 6.83341C16.6705 6.83341 15.9635 6.84537 13.9493 6.9325C12.5773 6.99571 11.6567 7.17508 10.8027 7.49966C10.0432 7.78666 9.4955 8.13004 8.91275 8.70062C8.36501 9.21722 7.94387 9.84791 7.68075 10.5456C7.34825 11.3827 7.1645 12.2796 7.1015 13.6172C7.0105 15.5032 7 16.1626 7 20.5001C7 24.7265 7.01225 25.4167 7.1015 27.383C7.16625 28.7206 7.35 29.6209 7.68075 30.4528C7.97825 31.196 8.32825 31.7307 8.90925 32.2978C9.499 32.8718 10.0468 33.2152 10.7993 33.4988C11.6637 33.8251 12.5843 34.0062 13.9493 34.0677C15.8813 34.1565 16.5568 34.1667 21 34.1667C25.3295 34.1667 26.0365 34.1548 28.0507 34.0677C29.4192 34.0045 30.3415 33.8251 31.1955 33.5022C31.9533 33.2135 32.5045 32.8701 33.0855 32.303C33.6753 31.7272 34.027 31.1925 34.3175 30.458C34.65 29.6157 34.8355 28.7155 34.8985 27.383C34.9895 25.497 35 24.8375 35 20.5001C35 16.2737 34.9877 15.5835 34.8985 13.6172C34.8337 12.2813 34.65 11.3793 34.3175 10.5456C34.0538 9.84863 33.6334 9.21818 33.0872 8.70062C32.5583 8.16565 31.9121 7.75449 31.1973 7.49796C30.3398 7.17337 29.4192 6.994 28.0507 6.9325C26.1187 6.84366 25.4433 6.83341 21 6.83341ZM21 3.41675C25.7547 3.41675 26.348 3.43383 28.2135 3.51925C30.0772 3.60466 31.346 3.88996 32.4625 4.31362C33.6175 4.74754 34.5905 5.33521 35.5635 6.28333C36.4534 7.13732 37.1419 8.17034 37.5812 9.3105C38.0135 10.3987 38.3075 11.639 38.395 13.4583C38.4772 15.2794 38.5 15.8585 38.5 20.5001C38.5 25.1416 38.4825 25.7207 38.395 27.5418C38.3075 29.3612 38.0135 30.5997 37.5812 31.6897C37.1432 32.8304 36.4545 33.8637 35.5635 34.7168C34.6884 35.5852 33.6303 36.2573 32.4625 36.6865C31.3477 37.1085 30.0772 37.3955 28.2135 37.4809C26.348 37.5612 25.7547 37.5834 21 37.5834C16.2452 37.5834 15.652 37.5663 13.7865 37.4809C11.9227 37.3955 10.654 37.1085 9.5375 36.6865C8.36907 36.2586 7.31067 35.5863 6.4365 34.7168C5.54646 33.863 4.85788 32.8299 4.41875 31.6897C3.98475 30.6015 3.6925 29.3612 3.605 27.5418C3.52275 25.7207 3.5 25.1416 3.5 20.5001C3.5 15.8585 3.5175 15.2794 3.605 13.4583C3.6925 11.6372 3.98475 10.4004 4.41875 9.3105C4.85666 8.16964 5.54541 7.13634 6.4365 6.28333C7.31092 5.41418 8.36925 4.74195 9.5375 4.31362C10.654 3.88996 11.921 3.60466 13.7865 3.51925C15.652 3.43896 16.2452 3.41675 21 3.41675Z" fill="white"/>
</g>
<defs>
<clipPath id="clip0_0_7">
<rect width="42" height="41" fill="white"/>
</clipPath>
</defs>
</svg>
